<svg xmlns="http://www.w3.org/2000/svg" viewBox="0 0 119.06 24.62"><defs><style>.cls-1{fill:#fff;}</style></defs><title>EM_Logo_Wht</title><path class="cls-1" d="M320.32,407.74l-0.49-1.19H318l-0.48,1.19h-0.68l1.74-4.37h0.67l1.74,4.37h-0.67Zm-1.4-3.65L318.18,406h1.46Z" transform="translate(-245.12 -383.2)"/><path class="cls-1" d="M325.17,407.74L324,406h-0.62v1.74h-0.68v-4.27h1.44c1,0,1.59.43,1.59,1.21a1.21,1.21,0,0,1-1,1.26l1.18,1.79h-0.79Zm-0.38-3.59a0.91,0.91,0,0,0-.69-0.12h-0.67v1.4h0.67a0.85,0.85,0,0,0,.71-0.18,0.67,0.67,0,0,0,.23-0.54A0.66,0.66,0,0,0,324.79,404.15Z" transform="translate(-245.12 -383.2)"/><path class="cls-1" d="M330.82,404.32a1.5,1.5,0,0,0-.43-0.25,2.33,2.33,0,0,0-.7-0.11,1.54,1.54,0,0,0-1.63,1.59,1.77,1.77,0,0,0,.51,1.27,2.18,2.18,0,0,0,2.29.22l0.2,0.5a3.2,3.2,0,0,1-1.28.28,2.22,2.22,0,1,1-.06-4.43,2.54,2.54,0,0,1,1.43.41Z" transform="translate(-245.12 -383.2)"/><path class="cls-1" d="M336.29,407.74v-1.91h-2.7v1.91h-0.68v-4.27h0.68v1.79h2.7v-1.79H337v4.27h-0.67Z" transform="translate(-245.12 -383.2)"/><path class="cls-1" d="M339.5,407.74v-4.27h0.68v4.27H339.5Z" transform="translate(-245.12 -383.2)"/><path class="cls-1" d="M344.14,404v3.71h-0.67V404H342v-0.56h3.71V404h-1.52Z" transform="translate(-245.12 -383.2)"/><path class="cls-1" d="M347.29,407.74v-4.27h2.64V404h-2v1.23h1.63v0.56H348v1.35h2v0.56h-2.7Z" transform="translate(-245.12 -383.2)"/><path class="cls-1" d="M355,404.32a1.49,1.49,0,0,0-.43-0.25,2.33,2.33,0,0,0-.7-0.11,1.54,1.54,0,0,0-1.63,1.59,1.77,1.77,0,0,0,.51,1.27A2.18,2.18,0,0,0,355,407l0.2,0.5a3.21,3.21,0,0,1-1.28.28,2.22,2.22,0,1,1-.06-4.43,2.53,2.53,0,0,1,1.43.41Z" transform="translate(-245.12 -383.2)"/><path class="cls-1" d="M358.49,404v3.71h-0.67V404H356.3v-0.56H360V404h-1.52Z" transform="translate(-245.12 -383.2)"/><path class="cls-1" d="M364.18,403.75a2.44,2.44,0,0,0-.57-0.25,2.86,2.86,0,0,0-.79-0.11,1.18,1.18,0,1,0-.61,2.29l0.78,0.37a0.67,0.67,0,0,1,.48.63,0.65,0.65,0,0,1-.79.57,1.86,1.86,0,0,1-.7-0.14,2.46,2.46,0,0,1-.55-0.34l-0.3.58a3.44,3.44,0,0,0,.61.32,2.63,2.63,0,0,0,.87.13,1.3,1.3,0,0,0,1.55-1.21c0-.53-0.26-0.82-1.06-1.21a2.52,2.52,0,0,1-1.1-.67,0.41,0.41,0,0,1-.05-0.22c0-.33.33-0.53,0.87-0.53a2.16,2.16,0,0,1,.6.09,1.74,1.74,0,0,1,.54.26Z" transform="translate(-245.12 -383.2)"/><path class="cls-1" d="M245.12,397c1.06,0,1.22-.22,1.22-1.5v-4.17c0-1.28-.15-1.49-1.22-1.49v-0.27H251l0.12,1.69h-0.27l-0.06-.26c-0.18-.67-0.31-1-1.49-1h-1.9v2.91H248c1.28,0,1.49-.15,1.49-1.23h0.27v2.94H249.5c0-1.08-.21-1.23-1.49-1.23h-0.64v1.87c0,1.28.15,1.49,1.22,1.49h1.1c1.18,0,1.32-.3,1.49-1l0.06-.26h0.27l-0.1,1.71h-6.29V397Z" transform="translate(-245.12 -383.2)"/><path class="cls-1" d="M253.5,397c1.06,0,1.22-.22,1.22-1.5v-4.17c0-1.28-.15-1.49-1.22-1.49v-0.27H257v0.27c-1.07,0-1.22.21-1.22,1.49v4c0,1.28.15,1.49,1.22,1.49h1.54c1.17,0,1.31-.3,1.48-1l0.06-.26h0.27l-0.1,1.71H253.5V397Z" transform="translate(-245.12 -383.2)"/><path class="cls-1" d="M268.75,396.24a3.43,3.43,0,0,0,1.66.74v0.27H266.8V397c0.85,0,1-.31.49-0.74L264,393.43l-0.33.27v1.78c0,1.28.15,1.5,1.22,1.5v0.27h-3.46V397c1.07,0,1.22-.22,1.22-1.5v-4.17c0-1.28-.15-1.49-1.22-1.49v-0.27h3.46v0.27c-1.06,0-1.22.21-1.22,1.49v1.8l2.63-2.25c0.81-.69.86-1,0.05-1v-0.27h3v0.27a3.1,3.1,0,0,0-2.35,1l-2.25,1.92Z" transform="translate(-245.12 -383.2)"/><path class="cls-1" d="M276.45,389.83v-0.27h3v0.27c-1.06,0-1.23.21-1.23,1.49v3.08a3.09,3.09,0,0,1-6.17,0v-3.08c0-1.28-.15-1.49-1.22-1.49v-0.27h3.46v0.27c-1.06,0-1.22.21-1.22,1.49v3.14a2.15,2.15,0,0,0,2.25,2.44,2.2,2.2,0,0,0,2.36-2.44v-3.14C277.68,390,277.51,389.83,276.45,389.83Z" transform="translate(-245.12 -383.2)"/><path class="cls-1" d="M280.72,397.48h-0.26v-2.82h0.26a2.3,2.3,0,0,0,2.37,2.31,1.48,1.48,0,0,0,1.6-1.41c0-.59-0.59-1.09-1.48-1.55l-1.23-.63a2.47,2.47,0,0,1-1.42-2.12,2,2,0,0,1,2.13-1.91,2.4,2.4,0,0,1,1.57.53,1.1,1.1,0,0,0,.37-0.59h0.26v2.82h-0.27c-0.09-1-.48-2.25-2-2.25a1.17,1.17,0,0,0-1.25,1.14c0,0.67.45,1,1.55,1.59l1.23,0.63a2.15,2.15,0,0,1,1.33,2,2.31,2.31,0,0,1-2.44,2.31,5.71,5.71,0,0,1-2-.6A1.09,1.09,0,0,0,280.72,397.48Z" transform="translate(-245.12 -383.2)"/><path class="cls-1" d="M297.26,395.49c0,1.28.17,1.5,1.23,1.5v0.27h-2.93V397c1.06,0,1.22-.22,1.22-1.5v-4.17c0-1.28-.15-1.49-1.22-1.49v-0.27h2.18l2.72,6.25,2.71-6.25h2v0.27c-1.08,0-1.23.21-1.23,1.49v4.17c0,1.28.15,1.5,1.23,1.5v0.27h-3.46V397c1.07,0,1.22-.22,1.22-1.5V391.3l-2.67,6.17h-0.17l-2.85-6.56v4.57Z" transform="translate(-245.12 -383.2)"/><path class="cls-1" d="M308.33,396c-0.31.69-.06,1,1,1v0.27h-3V397c1.08,0,1.14-.22,1.54-1.12l2.82-6.53h0.17l2.84,6.53c0.4,0.9.46,1.12,1.53,1.12v0.27h-3.55V397c1.07,0,1.31-.27,1-1l-0.62-1.42H309Zm2.16-5-1.33,3.09h2.68Z" transform="translate(-245.12 -383.2)"/><path class="cls-1" d="M323.12,391.32c0-1.28-.15-1.49-1.22-1.49v-0.27h2.93v0.27c-1.07,0-1.23.21-1.23,1.49v6.16h-0.3L318.08,391v4.47c0,1.28.17,1.5,1.23,1.5v0.27h-2.93V397c1.07,0,1.22-.22,1.22-1.5v-4.17c0-1.28-.15-1.49-1.22-1.49v-0.27h1.81l4.93,6.11v-4.35Z" transform="translate(-245.12 -383.2)"/><path class="cls-1" d="M328.83,392.95h0.64c1.28,0,1.49-.15,1.49-1.23h0.27v2.94H331c0-1.08-.21-1.23-1.49-1.23h-0.64v2.07c0,1.28.15,1.5,1.22,1.5v0.27h-3.47V397c1.07,0,1.22-.22,1.22-1.5v-4.17c0-1.28-.15-1.49-1.22-1.49v-0.27h6.07l0.1,1.69h-0.27l-0.06-.26c-0.17-.67-0.31-1-1.48-1h-2.12v2.91Z" transform="translate(-245.12 -383.2)"/><path class="cls-1" d="M339.54,395.36a4.2,4.2,0,0,0,2.39,1.63v0.27h-2.12l-2.54-3.37h-0.6v1.6c0,1.28.15,1.5,1.22,1.5v0.27h-3.46V397c1.06,0,1.22-.22,1.22-1.5v-4.17c0-1.28-.15-1.49-1.22-1.49v-0.27h3.39c1.78,0,2.76,1,2.76,2.17a2.25,2.25,0,0,1-2.28,2.16Zm-0.12-3.63A1.54,1.54,0,0,0,337.8,390h-1.13v3.39h1.13A1.54,1.54,0,0,0,339.43,391.73Z" transform="translate(-245.12 -383.2)"/><path class="cls-1" d="M343.09,397c1.06,0,1.22-.22,1.22-1.5v-4.17c0-1.28-.15-1.49-1.22-1.49v-0.27h5.85l0.12,1.69h-0.27l-0.06-.26c-0.18-.67-0.31-1-1.49-1h-1.9v2.91H346c1.28,0,1.49-.15,1.49-1.23h0.27v2.94h-0.27c0-1.08-.21-1.23-1.49-1.23h-0.64v1.87c0,1.28.15,1.49,1.22,1.49h1.1c1.18,0,1.32-.3,1.49-1l0.06-.26h0.27l-0.1,1.71h-6.29V397Z" transform="translate(-245.12 -383.2)"/><path class="cls-1" d="M351.27,397c1.06,0,1.22-.22,1.22-1.5v-4.17c0-1.28-.15-1.49-1.22-1.49v-0.27h3.48c3,0,4.29,1.73,4.29,3.85s-1.3,3.85-4.29,3.85h-3.48V397Zm2.25-1.69c0,1.28.14,1.49,1.19,1.49h0.05c2.5,0,3-1.87,3-3.38s-0.54-3.37-3-3.37h-1.25v5.26Z" transform="translate(-245.12 -383.2)"/><path class="cls-1" d="M360.68,397.26V397c1.07,0,1.22-.22,1.22-1.5v-4.17c0-1.28-.15-1.49-1.22-1.49v-0.27h3.46v0.27c-1.07,0-1.22.21-1.22,1.49v4.17c0,1.28.15,1.5,1.22,1.5v0.27h-3.46Z" transform="translate(-245.12 -383.2)"/><rect class="cls-1" x="45.52" width="0.41" height="19.5"/></svg>