<svg id="IconBenefitRequirements" xmlns="http://www.w3.org/2000/svg" viewBox="0 0 171.52 247.31"><defs><style>.cls-1{fill:#807f83;}.cls-2{fill:#fff;}.cls-3{fill:#00a5d9;}</style></defs><path class="cls-1" d="M131.33,45.09a30.79,30.79,0,0,1,1.87,12.7H59.27c0-2.66,1.12-8.24,2.54-12.7H21.27V246.46H171.52V45.09H131.33Z"/><rect class="cls-2" x="34.7" y="63.72" width="124.37" height="167.47"/><path class="cls-3" d="M110.19,38.41c-6.24,0-8.28-7.9-5.11-11.8a14.74,14.74,0,1,0-16.68.53c2.59,4,.46,11.26-5.5,11.26-11.16,0-16.43,4.45-16.3,14.78h59.89C126.62,42.87,121.35,38.41,110.19,38.41Zm-14-24.62a3.51,3.51,0,1,1,3.51-3.51A3.51,3.51,0,0,1,96.17,13.79Z"/><rect class="cls-3" x="44.85" y="77.54" width="102.33" height="2.73"/><rect class="cls-3" x="44.85" y="91.18" width="102.33" height="2.73"/><rect class="cls-3" x="44.85" y="104.82" width="102.33" height="2.73"/><rect class="cls-3" x="44.85" y="118.46" width="102.33" height="2.73"/><rect class="cls-3" x="44.85" y="130.73" width="102.33" height="2.73"/><rect class="cls-3" x="3.54" y="183.44" width="9.84" height="1.57"/><path class="cls-3" d="M2.36,163.33V126.24a1.18,1.18,0,0,1,1.18-1.18h0v57.2h9.84V122.69H3.54A3.55,3.55,0,0,0,0,126.24v37.09H2.36Z"/><rect class="cls-3" x="3.54" y="186.19" width="9.84" height="39.66"/><path class="cls-3" d="M7.87,244.46v2.25a0.59,0.59,0,0,0,1.18,0v-2.25L13.24,227H3.68Z"/><path class="cls-3" d="M8.46,117.18a4.92,4.92,0,0,0-4.88,4.33h9.76A4.92,4.92,0,0,0,8.46,117.18Z"/></svg>