<svg id="Layer_1" data-name="Layer 1" xmlns="http://www.w3.org/2000/svg" viewBox="0 0 171.52 247.31"><defs><style>.cls-1{fill:#00a5d9;}.cls-2{fill:#807f83;}</style></defs><title>BenefitRequirements_ICON</title><path class="cls-1" d="M319.34,191.58c-6.24,0-8.28-7.9-5.11-11.8a14.74,14.74,0,1,0-16.68.53c2.59,4,.46,11.26-5.5,11.26-11.16,0-16.43,4.45-16.3,14.78h59.89C335.76,196,330.5,191.58,319.34,191.58Zm-14-24.62a3.51,3.51,0,1,1,3.51-3.51A3.51,3.51,0,0,1,305.32,167Z" transform="translate(-209.15 -153.17)"/><path class="cls-2" d="M340.48,198.26a30.79,30.79,0,0,1,1.87,12.7H268.41c0-2.66,1.12-8.24,2.54-12.7H230.42V399.63H380.67V198.26H340.48Zm27.74,186.1H243.84V216.89H368.22V384.36Z" transform="translate(-209.15 -153.17)"/><rect class="cls-1" x="39.17" y="73.54" width="114.01" height="2.73"/><rect class="cls-1" x="39.17" y="87.18" width="114.01" height="2.73"/><rect class="cls-1" x="39.17" y="100.82" width="114.01" height="2.73"/><rect class="cls-1" x="39.17" y="114.46" width="114.01" height="2.73"/><rect class="cls-1" x="39.17" y="128.09" width="114.01" height="2.73"/><rect class="cls-1" x="3.54" y="183.44" width="9.84" height="1.57"/><path class="cls-1" d="M211.51,316.5V279.4a1.18,1.18,0,0,1,1.18-1.18h0v57.2h9.84V275.86h-9.84a3.55,3.55,0,0,0-3.54,3.54V316.5h2.36Z" transform="translate(-209.15 -153.17)"/><rect class="cls-1" x="3.54" y="186.19" width="9.84" height="39.66"/><path class="cls-1" d="M217,397.63v2.25a0.59,0.59,0,0,0,1.18,0v-2.25l4.19-17.43h-9.56Z" transform="translate(-209.15 -153.17)"/><path class="cls-1" d="M217.61,270.35a4.92,4.92,0,0,0-4.88,4.33h9.76A4.92,4.92,0,0,0,217.61,270.35Z" transform="translate(-209.15 -153.17)"/></svg>