<svg id="Layer_1" data-name="Layer 1" xmlns="http://www.w3.org/2000/svg" viewBox="0 0 243.09 243.08"><defs><style>.cls-1{fill:#00a5d9;}.cls-2{fill:#c7e8f5;}.cls-3{fill:#fff;}</style></defs><title>CadillacTax_ICON</title><path class="cls-1" d="M293.54,281.09L222.1,379.42a121.54,121.54,0,0,1-26.89-169.77c23.67-32.58,58.05-50.1,98.33-50.1V281.09Z" transform="translate(-171.99 -159.55)"/><path class="cls-2" d="M293.54,281.09V159.55a121.54,121.54,0,0,1,0,243.08c-26.85,0-49.72-7.43-71.44-23.21Z" transform="translate(-171.99 -159.55)"/><circle class="cls-3" cx="121.55" cy="121.54" r="77.22"/><rect class="cls-1" x="100.07" y="82.01" width="41.94" height="7.65" rx="3.09" ry="3.09"/><path class="cls-1" d="M309.28,252.89H277.1S254.61,287,254.61,302.84c0,11.61,4.53,22.85,12.77,27.49,8.4,4.73,16.86,4.73,27.49,4.73,9.81,0,19.29-.17,26.27-4.25,8.84-5.17,14-15.55,14-28C335.13,285.69,309.28,252.89,309.28,252.89ZM296.77,314v6.66h-7.43v-6.24a18.73,18.73,0,0,1-8.53-2.9l-1.11-.79,2.7-7.52,1.92,1.28a14.28,14.28,0,0,0,7.74,2.31c3.24,0,5.42-1.67,5.42-4.14,0-1.68-.69-3.51-5.73-5.55a27.64,27.64,0,0,1-6.56-3.47,10.44,10.44,0,0,1-4.58-8.7,12.06,12.06,0,0,1,.18-2,10.83,10.83,0,0,1,3.37-6.17,11.8,11.8,0,0,1,1-.84,13.5,13.5,0,0,1,4.58-2.18v-6.47h7.37v6a17.33,17.33,0,0,1,7,2.25l1.31,0.77-2.81,7.4-1.83-1a12.92,12.92,0,0,0-6.75-1.83c-3.41,0-4.63,1.76-4.63,3.42s0.93,3,6.41,5.25c4.89,2,10.52,5.25,10.52,12.77C306.36,307.93,302.57,312.5,296.77,314Z" transform="translate(-171.99 -159.55)"/><path class="cls-1" d="M277.94,238.15l-5.88-11.37s9.48-5.47,15.09-3,8.64,5.47,15.26,2.88a12.05,12.05,0,0,1,9.37-.12l-6.63,11.63h-27.2Z" transform="translate(-171.99 -159.55)"/></svg>