<svg id="IconCadillacTax" xmlns="http://www.w3.org/2000/svg" viewBox="0 0 243.09 243.08"><defs><style>.cls-CAD-1{fill:#00a5d9;}.cls-CAD-2{fill:#c7e8f5;}.cls-CAD-3{fill:#fff;}</style></defs><path class="cls-CAD-1" d="M121.55,121.54L50.11,219.87A121.54,121.54,0,0,1,23.22,50.1C46.89,17.52,81.28,0,121.55,0V121.54Z"/><path class="cls-CAD-2" d="M121.55,121.54V0a121.54,121.54,0,0,1,0,243.08c-26.85,0-49.72-7.43-71.44-23.21Z"/><!--<path class="cls-CAD-2" d="M121.55,121.54L50.11,219.87A121.54,121.54,0,0,1,23.22,50.1C46.89,17.52,81.28,0,121.55,0V121.54Z"/>--><circle class="cls-CAD-3" cx="122.06" cy="121.54" r="77.22"/><rect class="cls-CAD-1" x="100.58" y="82.01" width="41.94" height="7.65" rx="3.09" ry="3.09"/><path class="cls-CAD-1" d="M137.8,93.35H105.62S83.12,127.44,83.12,143.3c0,11.61,4.53,22.85,12.77,27.49,8.4,4.73,16.86,4.73,27.49,4.73,9.81,0,19.29-.17,26.27-4.25,8.84-5.17,14-15.55,14-28C163.64,126.14,137.8,93.35,137.8,93.35Zm-12.51,61.14v6.66h-7.43v-6.24a18.73,18.73,0,0,1-8.53-2.9l-1.11-.79,2.7-7.52,1.92,1.28a14.28,14.28,0,0,0,7.74,2.31c3.24,0,5.42-1.67,5.42-4.14,0-1.68-.69-3.51-5.73-5.55a27.64,27.64,0,0,1-6.56-3.47,10.44,10.44,0,0,1-4.58-8.7,12.06,12.06,0,0,1,.18-2,10.83,10.83,0,0,1,3.37-6.17,11.8,11.8,0,0,1,1-.84,13.5,13.5,0,0,1,4.58-2.18v-6.47h7.37v6a17.33,17.33,0,0,1,7,2.25l1.31,0.77-2.81,7.4-1.83-1a12.92,12.92,0,0,0-6.75-1.83c-3.41,0-4.63,1.76-4.63,3.42s0.93,3,6.41,5.25c4.89,2,10.52,5.25,10.52,12.77C134.88,148.38,131.08,153,125.29,154.49Z"/><path class="cls-CAD-1" d="M106.45,78.6l-5.88-11.37s9.48-5.47,15.09-3,8.64,5.47,15.26,2.88a12.05,12.05,0,0,1,9.37-.12L133.66,78.6h-27.2Z"/></svg>