<svg id="Layer_1" data-name="Layer 1" xmlns="http://www.w3.org/2000/svg" viewBox="0 0 243.25 243.25"><defs><style>.cls-1{fill:#88cbdf;}.cls-1,.cls-2,.cls-3{fill-rule:evenodd;}.cls-2{fill:#00a5d9;}.cls-3{fill:#bec0c2;}</style></defs><title>Exchanges_ICON_2</title><path class="cls-1" d="M216.53,180.54A79.06,79.06,0,0,0,325.31,295.23l-26.65-26.78a41.26,41.26,0,0,1-67.58-31.87,40.63,40.63,0,0,1,12.09-29.26,4.83,4.83,0,0,0,0-6.46l-20.33-20.33A4.65,4.65,0,0,0,216.53,180.54Z" transform="translate(-193.32 -157.47)"/><path class="cls-2" d="M304.71,177.52l-19.64,19.64a41.27,41.27,0,0,1,26.65,26.65l19.64-19.64L343.17,216a5.28,5.28,0,0,0,3.71,1.24,4.81,4.81,0,0,0,4.53-4.81V162.14a4.63,4.63,0,0,0-4.67-4.67H296.61a5,5,0,0,0-4.94,4.53,5.41,5.41,0,0,0,1.24,3.85l11.81,11.68h0Z" transform="translate(-193.32 -157.47)"/><path class="cls-1" d="M325.18,380.66L344.82,361a41.26,41.26,0,0,1-26.65-26.65L298.53,354l-11.67-11.68a4.94,4.94,0,0,0-8.38,3.57V396a4.63,4.63,0,0,0,4.67,4.67h50.27a5,5,0,0,0,4.95-4.53,5.18,5.18,0,0,0-1.37-3.71Z" transform="translate(-193.32 -157.47)"/><path class="cls-3" d="M357.59,288.5a33.24,33.24,0,1,0,33.24,33.24,33.18,33.18,0,0,0-33.24-33.24h0Zm-85.16-18.68a33.24,33.24,0,1,0-33.24-33.24A33.36,33.36,0,0,0,272.43,269.82Z" transform="translate(-193.32 -157.47)"/><path class="cls-2" d="M413.49,377.64A79.11,79.11,0,0,0,304.57,263l26.78,26.78a40.78,40.78,0,0,1,26.23-9.34A41.37,41.37,0,0,1,386.85,351a4.39,4.39,0,0,0,0,6.32L407,377.64A4.56,4.56,0,0,0,413.49,377.64Z" transform="translate(-193.32 -157.47)"/></svg>