<svg id="Layer_1" data-name="Layer 1" xmlns="http://www.w3.org/2000/svg" viewBox="0 0 243.25 243.25"><defs><style>.cls-1{fill:#df7a1c;}.cls-1,.cls-2{fill-rule:evenodd;}.cls-2{fill:#00a5d9;}</style></defs><title>Exchanges_ICON</title><path class="cls-1" d="M296.06,333.59H296v-0.41H279.38a4.64,4.64,0,0,1-3.57-1.65,5,5,0,0,1,.21-6.73c11.81-11.87,23.61-23.68,35.49-35.55a4.72,4.72,0,0,1,6.59,0l35.49,35.55a4.9,4.9,0,0,1-3.36,8.37H333.74A32.52,32.52,0,1,0,386.39,305a79.3,79.3,0,0,0,34.18-18.94,70.21,70.21,0,1,1-124.51,47.5h0Zm37.48-109h0.07V225h16.61a4.59,4.59,0,0,1,3.57,1.72,5,5,0,0,1-.21,6.73c-11.81,11.81-23.68,23.61-35.49,35.49a4.72,4.72,0,0,1-6.59,0L276,233.45a4.93,4.93,0,0,1,3.36-8.44h16.4a32.49,32.49,0,1,0-52.58,28.14A79.3,79.3,0,0,0,209,272.1,70.21,70.21,0,1,1,333.54,224.6Z" transform="translate(-193.17 -157.47)"/><path class="cls-2" d="M260.3,260.36v-0.07h0.41V243.68a4.75,4.75,0,0,1,1.65-3.57,5,5,0,0,1,6.73.21C281,252.12,292.77,264,304.64,275.8a4.72,4.72,0,0,1,0,6.59l-35.55,35.49a5,5,0,0,1-6.66.34,5.11,5.11,0,0,1-1.72-3.71v-16.4a32.49,32.49,0,1,0,28.14,52.58,79.31,79.31,0,0,0,18.94,34.18,70.21,70.21,0,1,1-47.5-124.51h0Zm109,37.48v0.07h-0.41v16.61a4.73,4.73,0,0,1-1.72,3.64,5,5,0,0,1-6.73-.27L325,282.39a4.72,4.72,0,0,1,0-6.59l35.49-35.49a5,5,0,0,1,6.66-.27,4.8,4.8,0,0,1,1.78,3.64v16.47a32.52,32.52,0,1,0-28.14-52.65,79.31,79.31,0,0,0-18.94-34.18A70.21,70.21,0,1,1,369.3,297.83Z" transform="translate(-193.17 -157.47)"/></svg>