<svg id="Layer_1" data-name="Layer 1" xmlns="http://www.w3.org/2000/svg" viewBox="0 0 162.89 244.7"><defs><style>.cls-1{fill:#00a5d9;}.cls-2{fill:#df7a1c;}.cls-3{fill:#fff;}</style></defs><title>LearnMore_ICON</title><path class="cls-1" d="M299.51,402c11.78,0,22.07-4.87,27-12h-54C277.48,397.13,287.66,402,299.51,402Z" transform="translate(-218.06 -157.3)"/><path class="cls-1" d="M337.39,366.42H261.62c-3.63,0-6.73,3.36-6.73,7.53s3.1,7.48,6.73,7.48h75.77c3.68,0,6.59-3.34,6.59-7.48S341.07,366.42,337.39,366.42Z" transform="translate(-218.06 -157.3)"/><path class="cls-1" d="M337.39,344.65H261.62c-3.63,0-6.73,3.38-6.73,7.57s3.1,7.49,6.73,7.49h75.77c3.68,0,6.59-3.32,6.59-7.49S341.07,344.65,337.39,344.65Z" transform="translate(-218.06 -157.3)"/><path class="cls-2" d="M299.51,157.3a81.4,81.4,0,0,0-81.44,81.38c0,30.47,21.18,52.3,35.42,76.76,3.49,6,5.94,21.87,5.94,21.87h80.22s2.39-15.89,5.84-21.87C359.76,291,381,269.16,381,238.69A81.44,81.44,0,0,0,299.51,157.3Z" transform="translate(-218.06 -157.3)"/><polygon class="cls-3" points="81.44 37.11 97.24 69.11 132.55 74.24 107 99.14 113.03 134.31 81.44 117.71 49.86 134.31 55.89 99.14 30.34 74.24 65.65 69.11 81.44 37.11"/></svg>