<svg id="IconLearnMore" xmlns="http://www.w3.org/2000/svg" viewBox="0 0 162.89 244.7"><defs><style>.cls-LEA-1{fill:#00a5d9;}.cls-LEA-2{fill:#df7a1c;}.cls-LEA-3{fill:#fff;}</style></defs><path class="cls-LEA-1" d="M81.44,244.7c11.78,0,22.07-4.87,27-12h-54C59.41,239.82,69.6,244.7,81.44,244.7Z"/><path class="cls-LEA-1" d="M119.32,209.11H43.55c-3.63,0-6.73,3.36-6.73,7.53s3.1,7.48,6.73,7.48h75.77c3.68,0,6.59-3.34,6.59-7.48S123,209.11,119.32,209.11Z"/><path class="cls-LEA-1" d="M119.32,187.34H43.55c-3.63,0-6.73,3.38-6.73,7.57s3.1,7.49,6.73,7.49h75.77c3.68,0,6.59-3.32,6.59-7.49S123,187.34,119.32,187.34Z"/><path class="cls-LEA-2" d="M81.44,0A81.4,81.4,0,0,0,0,81.38c0,30.47,21.18,52.3,35.42,76.76,3.49,6,5.94,21.87,5.94,21.87h80.22s2.39-15.89,5.84-21.87c14.28-24.46,35.47-46.29,35.47-76.76A81.44,81.44,0,0,0,81.44,0Z"/><polygon class="cls-LEA-3" points="81.44 37.11 97.24 69.11 132.55 74.24 107 99.14 113.03 134.31 81.44 117.71 49.86 134.31 55.89 99.14 30.34 74.24 65.65 69.11 81.44 37.11"/></svg>