<svg id="Layer_1" data-name="Layer 1" xmlns="http://www.w3.org/2000/svg" viewBox="0 0 222.91 243.25"><defs><style>.cls-1{fill:#00a5d9;}.cls-2{fill:#df7a1c;}.cls-3{fill:#fff;}</style></defs><title>NewEmployee_ICON_2</title><path class="cls-1" d="M296.45,237c-2.1-9.63-6.91-19.5-18.88-19.5H234.44c-12,0-16.77,9.87-18.88,19.5-4.31,19.77-6.83,36.6-10.7,57.8-1,5.36.61,8,2.46,8.34,2.69,0.55,4.56,1,7.3,1.51,3.37,0.6,5.32-1.11,6.31-5.09,3.73-15,5.15-20.58,8.11-34.24v127.6c0,6.61,2.32,7.82,5,7.82h9.06c2.46,0,4.34-2.2,5.22-8.22,1.45-9.82,4.23-32.85,7.68-68.86,3.45,36,6.23,59,7.69,68.86,0.88,6,2.75,8.22,5.21,8.22H278c2.66,0,5-1.2,5-7.82V265.31c3,13.66,4.39,19.21,8.11,34.24,1,4,2.94,5.68,6.31,5.09,2.75-.49,4.62-1,7.31-1.51,1.84-.36,3.44-3,2.47-8.34C303.28,273.6,300.77,256.76,296.45,237ZM256,284.88c-1.66,0-8.84-8.71-10.53-11.92,0.76-3.73,7.26-30,8.14-34.77,0.48-2.61-.48-3.56-2.77-5.49-1.18-1-1.84-2-.94-3.61,0.74-1.28,1.66-3.08,2.8-4.89,0.54-.86,1.77-1.08,3.3-1.08s2.77,0.22,3.29,1.08c1.13,1.81,2.07,3.61,2.79,4.89,0.91,1.6.25,2.61-.94,3.61-2.27,1.93-3.24,2.88-2.75,5.49,0.88,4.73,7.38,31,8.13,34.77C264.84,276.17,257.66,284.88,256,284.88Z" transform="translate(-204.56 -157.47)"/><path class="cls-2" d="M354.51,157.47a73,73,0,0,0-69.9,52c7.73,2,16.8,8.3,20.59,25.63,3,13.66,5.12,26,7.39,39,1,5.81,2.06,11.83,3.22,18.22A73,73,0,1,0,354.51,157.47Z" transform="translate(-204.56 -157.47)"/><path class="cls-1" d="M256,209.71c11.92,0,21.57-10.5,21.57-23.47s-9.66-23.48-21.57-23.48-21.59,10.5-21.59,23.48S244.09,209.71,256,209.71Z" transform="translate(-204.56 -157.47)"/><polygon class="cls-3" points="151.48 28.77 165.08 56.33 195.49 60.75 173.48 82.2 178.68 112.48 151.48 98.19 124.28 112.48 129.47 82.2 107.47 60.75 137.88 56.33 151.48 28.77"/></svg>