<svg id="Layer_1" data-name="Layer 1" xmlns="http://www.w3.org/2000/svg" viewBox="0 0 297.9 235.53"><defs><style>.cls-1{fill:#bec0c2;}.cls-2{fill:#00a5d9;}.cls-3{fill:#df7a1c;}</style></defs><title>Penalties_ICON</title><path class="cls-1" d="M419.15,374.9H409V361.52H267.87V374.9H257.73c-5.41,0-9.81,5.51-9.81,12.25s4.39,12.27,9.81,12.24H419.14c5.43,0.08,9.92-5.41,9.86-12.2S424.58,374.9,419.15,374.9Z" transform="translate(-131.1 -163.86)"/><path class="cls-2" d="M296.17,327.53c4.82,4.81,11.74,5.54,15.62,1.69L360.94,280c3.91-3.82,3.13-10.83-1.67-15.6s-11.82-5.57-15.62-1.69L294.43,312C290.57,315.79,291.36,322.78,296.17,327.53Z" transform="translate(-131.1 -163.86)"/><path class="cls-2" d="M199.8,231.2c4.82,4.84,11.79,5.54,15.6,1.67l49.2-49.25c3.86-3.83,3.13-10.86-1.67-15.62s-11.82-5.55-15.62-1.65L198.1,215.59C194.26,219.47,195,226.42,199.8,231.2Z" transform="translate(-131.1 -163.86)"/><path class="cls-2" d="M271.62,190.63L222,240.35l22.76,22.7L134.62,373.16a12.49,12.49,0,0,0,4.69,20.37,12.57,12.57,0,0,0,4.31.8,12.45,12.45,0,0,0,8.38-3.28L262.24,280.58l0.16,0L287,305.34l49.58-49.72Z" transform="translate(-131.1 -163.86)"/><path class="cls-3" d="M379.57,296.67s-10.7,35.36,34.67,22.88c0,0-31.59,17.67-13.83,31.45,0,0-21.22-11.92-27.19,11.51,0,0-4.74-27.75-44.33,7.5,0,0,32.49-34.62,7.31-33,0,0,19-9.62,14.9-20.66C351.11,316.34,367,325,379.57,296.67Z" transform="translate(-131.1 -163.86)"/></svg>