<svg id="Layer_1" data-name="Layer 1" xmlns="http://www.w3.org/2000/svg" viewBox="0 0 297.9 235.53"><defs><style>.cls-1{fill:#bec0c2;}.cls-2{fill:#00a5d9;}.cls-3{fill:#df7a1c;}</style></defs><title>Penalties_ICON</title><path class="cls-1" d="M288,211H277.89V197.66H136.77V211H126.63c-5.41,0-9.81,5.51-9.81,12.25s4.39,12.27,9.81,12.24H288c5.43,0.08,9.92-5.41,9.86-12.2S293.48,211,288,211Z"/><path class="cls-2" d="M165.07,163.68c4.82,4.81,11.74,5.54,15.62,1.69l49.15-49.27c3.91-3.82,3.13-10.83-1.67-15.6s-11.82-5.57-15.62-1.69L163.33,148.1C159.47,151.93,160.26,158.92,165.07,163.68Z"/><path class="cls-2" d="M68.7,67.34c4.82,4.84,11.79,5.54,15.6,1.67l49.2-49.25c3.86-3.83,3.13-10.86-1.67-15.62S120-1.41,116.21,2.49L67,51.73C63.16,55.62,63.92,62.56,68.7,67.34Z"/><path class="cls-2" d="M140.52,26.77L90.89,76.49l22.76,22.7L3.52,209.3a12.49,12.49,0,0,0,4.69,20.37,12.57,12.57,0,0,0,4.31.8,12.45,12.45,0,0,0,8.38-3.28L131.14,116.72l0.16,0,24.62,24.71,49.58-49.72Z"/><path class="cls-3" d="M248.47,132.82s-10.7,35.36,34.67,22.88c0,0-31.59,17.67-13.83,31.45,0,0-21.22-11.92-27.19,11.51,0,0-4.74-27.75-44.33,7.5,0,0,32.49-34.62,7.31-33,0,0,19-9.62,14.9-20.66C220,152.49,235.87,161.18,248.47,132.82Z"/></svg>