<svg id="Layer_1" data-name="Layer 1" xmlns="http://www.w3.org/2000/svg" viewBox="0 0 354.07 227.97"><defs><style>.cls-1{fill:#00a5d9;}.cls-2{fill:#88cbdf;}.cls-3{fill:#8fcbcf;}.cls-4{fill:#00274d;}.cls-5{fill:none;}.cls-6{fill:#df7a1c;}.cls-7{fill:#fff;}.cls-8{opacity:0.52;}</style></defs><title>SmallBusiness_ICON</title><rect class="cls-1" x="40.22" y="217.97" width="273.42" height="9.99"/><rect class="cls-2" x="44.93" y="25.11" width="264.09" height="192.87"/><rect class="cls-3" x="75.1" y="138.11" width="203.74" height="79.86"/><path class="cls-1" d="M443.55,460.65h-34.8V439.44H441a2.51,2.51,0,0,1,2.51,2.51v18.7Z" transform="translate(-129.91 -242.68)"/><path class="cls-1" d="M170.13,460.65h34.8V439.44H172.65a2.51,2.51,0,0,0-2.51,2.51v18.7Z" transform="translate(-129.91 -242.68)"/><rect class="cls-4" x="165.09" y="138.11" width="23.69" height="73.18"/><rect class="cls-4" x="137.93" y="138.11" width="23.69" height="73.18"/><rect class="cls-4" x="110.78" y="138.11" width="23.69" height="73.18"/><rect class="cls-5" x="192.24" y="138.11" width="23.69" height="73.18"/><rect class="cls-4" x="246.55" y="138.11" width="25.42" height="73.18"/><rect class="cls-4" x="81.98" y="138.11" width="25.34" height="73.18"/><rect class="cls-4" x="219.4" y="138.11" width="23.69" height="73.18"/><path class="cls-1" d="M164.82,254.92c3.19,1.17,10,9.32,10,13.36H438.93c0-4,6.83-12.19,10-13.36H164.82Z" transform="translate(-129.91 -242.68)"/><rect class="cls-4" x="34.91" width="284.13" height="12.25"/><path class="cls-4" d="M210.39,289a16.6,16.6,0,0,0-10.76,0,9.56,9.56,0,0,0-6.31,9.1v26.56H216.7V298.08A9.56,9.56,0,0,0,210.39,289Z" transform="translate(-129.91 -242.68)"/><rect class="cls-1" x="61.08" y="81.97" width="28.06" height="5.01"/><path class="cls-4" d="M251.14,289a16.6,16.6,0,0,0-10.76,0,9.56,9.56,0,0,0-6.31,9.1v26.56h23.38V298.08A9.56,9.56,0,0,0,251.14,289Z" transform="translate(-129.91 -242.68)"/><rect class="cls-1" x="101.82" y="81.97" width="28.06" height="5.01"/><path class="cls-4" d="M291.89,289a16.6,16.6,0,0,0-10.76,0,9.56,9.56,0,0,0-6.31,9.1v26.56H298.2V298.08A9.56,9.56,0,0,0,291.89,289Z" transform="translate(-129.91 -242.68)"/><rect class="cls-1" x="142.57" y="81.97" width="28.06" height="5.01"/><path class="cls-4" d="M332.64,289a16.6,16.6,0,0,0-10.76,0,9.56,9.56,0,0,0-6.31,9.1v26.56H339V298.08A9.56,9.56,0,0,0,332.64,289Z" transform="translate(-129.91 -242.68)"/><rect class="cls-1" x="183.32" y="81.97" width="28.06" height="5.01"/><path class="cls-4" d="M373.39,289a16.6,16.6,0,0,0-10.76,0,9.56,9.56,0,0,0-6.31,9.1v26.56H379.7V298.08A9.56,9.56,0,0,0,373.39,289Z" transform="translate(-129.91 -242.68)"/><rect class="cls-1" x="224.07" y="81.97" width="28.06" height="5.01"/><path class="cls-4" d="M414.14,289a16.6,16.6,0,0,0-10.76,0,9.56,9.56,0,0,0-6.31,9.1v26.56h23.38V298.08A9.56,9.56,0,0,0,414.14,289Z" transform="translate(-129.91 -242.68)"/><rect class="cls-1" x="264.82" y="81.97" width="28.06" height="5.01"/><path class="cls-6" d="M218.59,347.05H205V382h0a6.77,6.77,0,0,0,13.54,0S218.59,347.05,218.59,347.05Z" transform="translate(-129.91 -242.68)"/><path class="cls-7" d="M232.17,347.05H218.59V382h0a6.77,6.77,0,0,0,13.54,0S232.17,347.05,232.17,347.05Z" transform="translate(-129.91 -242.68)"/><path class="cls-6" d="M245.75,347.05H232.17V382h0a6.77,6.77,0,0,0,13.54,0S245.75,347.05,245.75,347.05Z" transform="translate(-129.91 -242.68)"/><path class="cls-7" d="M259.32,347.05H245.75V382h0a6.77,6.77,0,0,0,13.54,0S259.32,347.05,259.32,347.05Z" transform="translate(-129.91 -242.68)"/><path class="cls-6" d="M272.9,347.05H259.32V382h0a6.77,6.77,0,0,0,13.54,0S272.9,347.05,272.9,347.05Z" transform="translate(-129.91 -242.68)"/><path class="cls-7" d="M286.48,347.05H272.9V382h0a6.77,6.77,0,0,0,13.54,0S286.48,347.05,286.48,347.05Z" transform="translate(-129.91 -242.68)"/><path class="cls-6" d="M300.06,347.05H286.48V382h0A6.77,6.77,0,0,0,300,382S300.06,347.05,300.06,347.05Z" transform="translate(-129.91 -242.68)"/><path class="cls-7" d="M313.63,347.05H300.06V382h0a6.77,6.77,0,0,0,13.54,0S313.63,347.05,313.63,347.05Z" transform="translate(-129.91 -242.68)"/><path class="cls-6" d="M327.21,347.05H313.63V382h0a6.77,6.77,0,0,0,13.54,0S327.21,347.05,327.21,347.05Z" transform="translate(-129.91 -242.68)"/><path class="cls-7" d="M340.79,347.05H327.21V382h0a6.77,6.77,0,0,0,13.54,0S340.79,347.05,340.79,347.05Z" transform="translate(-129.91 -242.68)"/><path class="cls-6" d="M354.36,347.05H340.79V382h0a6.77,6.77,0,0,0,13.54,0S354.36,347.05,354.36,347.05Z" transform="translate(-129.91 -242.68)"/><path class="cls-7" d="M367.94,347.05H354.36V382h0a6.77,6.77,0,0,0,13.54,0S367.94,347.05,367.94,347.05Z" transform="translate(-129.91 -242.68)"/><path class="cls-6" d="M381.52,347.05H367.94V382h0a6.77,6.77,0,0,0,13.54,0S381.52,347.05,381.52,347.05Z" transform="translate(-129.91 -242.68)"/><path class="cls-6" d="M408.67,347.05H395.1V382h0a6.77,6.77,0,0,0,13.54,0S408.67,347.05,408.67,347.05Z" transform="translate(-129.91 -242.68)"/><rect class="cls-1" x="278.85" y="104.38" width="34.8" height="34.71"/><rect class="cls-1" x="40.22" y="104.38" width="34.8" height="34.71"/><circle class="cls-7" cx="296.25" cy="121.73" r="8.14"/><circle class="cls-7" cx="57.62" cy="121.73" r="8.14"/><path class="cls-7" d="M395.1,347.05H381.52V382h0a6.77,6.77,0,0,0,13.54,0S395.1,347.05,395.1,347.05Z" transform="translate(-129.91 -242.68)"/><g class="cls-8"><path class="cls-6" d="M205,374.9V382h0a6.77,6.77,0,0,0,13.54,0h0a6.77,6.77,0,0,0,13.54,0h0a6.77,6.77,0,0,0,13.54,0h0a6.77,6.77,0,0,0,13.54,0h0a6.77,6.77,0,0,0,13.54,0h0a6.77,6.77,0,0,0,13.54,0h0A6.77,6.77,0,0,0,300,382h0a6.77,6.77,0,0,0,13.54,0h0a6.77,6.77,0,0,0,13.54,0h0a6.77,6.77,0,0,0,13.54,0h0a6.77,6.77,0,0,0,13.54,0h0a6.77,6.77,0,0,0,13.54,0h0a6.77,6.77,0,0,0,13.54,0h0a6.77,6.77,0,0,0,13.54,0h0a6.77,6.77,0,0,0,13.54,0s0-7.07,0-7.07H205Z" transform="translate(-129.91 -242.68)"/></g><polygon class="cls-1" points="345.08 227.68 332.01 227.68 327.11 213.84 349.98 213.84 345.08 227.68"/><rect class="cls-1" x="335.89" y="199.8" width="5.31" height="14.03"/><circle class="cls-6" cx="338.55" cy="185.76" r="15.52"/><polygon class="cls-1" points="8.99 227.45 22.06 227.45 26.96 213.6 4.08 213.6 8.99 227.45"/><rect class="cls-1" x="12.87" y="199.57" width="5.31" height="14.03"/><circle class="cls-6" cx="15.52" cy="185.52" r="15.52"/></svg>