<svg id="Layer_1" data-name="Layer 1" xmlns="http://www.w3.org/2000/svg" viewBox="0 0 203.07 236.18"><defs><style>.cls-1{fill:#807f83;}.cls-2{fill:#e08738;}.cls-3{fill:#df7a1c;}.cls-4{fill:#00a6de;}.cls-5{fill:#00a5d9;}.cls-6{fill:#bec0c2;}</style></defs><title>VoluntaryInsurance_ICON</title><path class="cls-1" d="M170.33,97.09a32.74,32.74,0,1,1,32.74-32.74A32.78,32.78,0,0,1,170.33,97.09Zm0-59.14a26.4,26.4,0,1,0,26.4,26.4A26.43,26.43,0,0,0,170.33,38Z"/><polygon class="cls-1" points="173.95 59.57 187.4 59.57 187.4 66.8 173.95 66.8 173.95 80.25 166.72 80.25 166.72 66.8 153.26 66.8 153.26 59.57 166.72 59.57 166.72 46.12 173.95 46.12 173.95 59.57"/><path class="cls-2" d="M127.1,156.41a32.83,32.83,0,1,1,32.83-32.83A32.87,32.87,0,0,1,127.1,156.41Zm0-60.38a27.55,27.55,0,1,0,27.55,27.55A27.58,27.58,0,0,0,127.1,96Z"/><polygon class="cls-3" points="130.71 119.97 144.16 119.97 144.16 127.2 130.71 127.2 130.71 140.65 123.48 140.65 123.48 127.2 110.03 127.2 110.03 119.97 123.48 119.97 123.48 106.52 130.71 106.52 130.71 119.97"/><path class="cls-4" d="M85.49,92.23a46.12,46.12,0,1,1,46.12-46.11A46.17,46.17,0,0,1,85.49,92.23Zm0-85.89a39.78,39.78,0,1,0,39.78,39.78A39.82,39.82,0,0,0,85.49,6.34Z"/><polygon class="cls-5" points="90.39 41.09 111.48 41.09 111.48 52.42 90.39 52.42 90.39 73.5 79.06 73.5 79.06 52.42 57.98 52.42 57.98 41.09 79.06 41.09 79.06 20.01 90.39 20.01 90.39 41.09"/><path class="cls-6" d="M118.57,187.58a5,5,0,0,1,1.42-2l20.25-17.31a18.73,18.73,0,0,0-3.19-.28,23.94,23.94,0,0,0-7.86,1.39l-21,18Z"/><path class="cls-6" d="M125.1,187.74l10,0.25,27.64-23.3a18.33,18.33,0,0,0-3.93-.42,23.92,23.92,0,0,0-7.85,1.38Z"/><path class="cls-6" d="M191.94,160.87a18,18,0,0,0-8.08-1.78,26.12,26.12,0,0,0-8.54,1.49L136.84,193l-31.39-.78L77.2,171.05,111,163c3.31-1.49,11.5-6.37,11.85-12a4.11,4.11,0,0,0-1.09-3.16c-2.43-2.69-8.25-3.47-10.28-3.55-0.34,0-48.16,2.28-57.79,5.89C46,153.08,13.4,184.68,0,198.09l36.91,38.08c3.69-3.5,14.85-14.08,19.8-18.61,3.78-3.46,25.43-4.09,58-4.66,13.65-.24,29.11-0.51,31-1.35,3.48-1.74,29.56-26.3,46.36-42.49,0.69-1.23,2-4.31,1.42-6.4A2.83,2.83,0,0,0,191.94,160.87Z"/></svg>